<svg xmlns="http://www.w3.org/2000/svg" viewBox="0 0 1024 1024" fill="none">
  <defs>
    <linearGradient id="gradient" x1="0%" y1="0%" x2="0%" y2="100%">
      <stop offset="0%" style="stop-color:#FDB913;stop-opacity:1" />
      <stop offset="100%" style="stop-color:#FF6B35;stop-opacity:1" />
    </linearGradient>
  </defs>
  
  <!-- Background -->
  <rect width="1024" height="1024" rx="226" fill="#F5F5F5"/>
  
  <!-- Chat bubble ring with gradient -->
  <path d="M512 170C339.5 170 200 309.5 200 482C200 573 237 656 297 717L257 824L394 777C440 795 490 806 544 806C716.5 806 856 666.5 856 494C856 321.5 716.5 170 544 170Z" 
        fill="url(#gradient)" 
        stroke="url(#gradient)" 
        stroke-width="20"/>
  
  <!-- White inner circle -->
  <circle cx="512" cy="492" r="250" fill="#FFFFFF"/>
  
  <!-- Book icon with gradient -->
  <path d="M400 380C390 380 380 390 380 400V620C380 630 390 640 400 640H475V380H400Z" 
        fill="url(#gradient)"/>
  <path d="M475 380V640H550C560 640 570 630 570 620V400C570 390 560 380 550 380H475Z" 
        fill="url(#gradient)"/>
  <path d="M475 375L475 385" stroke="url(#gradient)" stroke-width="5" stroke-linecap="round"/>
  <path d="M475 635L475 645" stroke="url(#gradient)" stroke-width="5" stroke-linecap="round"/>
</svg>
